ffmpeg version N-55863-g9f38fac053-static https://johnvansickle.com/ffmpeg/  Copyright (c) 2000-2021 the FFmpeg developers
  built with gcc 8 (Debian 8.3.0-6)
  configuration: --enable-gpl --enable-version3 --enable-static --disable-debug --disable-ffplay --disable-indev=sndio --disable-outdev=sndio --cc=gcc --enable-fontconfig --enable-frei0r --enable-gnutls --enable-gmp --enable-libgme --enable-gray --enable-libaom --enable-libfribidi --enable-libass --enable-libvmaf --enable-libfreetype --enable-libmp3lame --enable-libopencore-amrnb --enable-libopencore-amrwb --enable-libopenjpeg --enable-librubberband --enable-libsoxr --enable-libspeex --enable-libsrt --enable-libvorbis --enable-libopus --enable-libtheora --enable-libvidstab --enable-libvo-amrwbenc --enable-libvpx --enable-libwebp --enable-libx264 --enable-libx265 --enable-libxml2 --enable-libdav1d --enable-libxvid --enable-libzvbi --enable-libzimg
  libavutil      56. 64.100 / 56. 64.100
  libavcodec     58.119.100 / 58.119.100
  libavformat    58. 65.101 / 58. 65.101
  libavdevice    58. 11.103 / 58. 11.103
  libavfilter     7.100.100 /  7.100.100
  libswscale      5.  8.100 /  5.  8.100
  libswresample   3.  8.100 /  3.  8.100
  libpostproc    55.  8.100 / 55.  8.100
Input #0, mov,mp4,m4a,3gp,3g2,mj2, from '/home/yiaapc5/public_html/f_data/data_userfiles/user_uploads/1134370236/v/1613177549.mp4':
  Metadata:
    major_brand     : mp42
    minor_version   : 0
    compatible_brands: isommp42
    creation_time   : 2020-10-31T21:21:59.000000Z
    encoder         : Google
  Duration: 00:01:42.14, start: 0.000000, bitrate: 3086 kb/s
    Stream #0:0(und): Video: h264 (High) (avc1 / 0x31637661), yuv420p(tv, bt709), 1280x720 [SAR 1:1 DAR 16:9], 2956 kb/s, 29.97 fps, 29.97 tbr, 30k tbn, 59.94 tbc (default)
    Metadata:
      creation_time   : 2020-10-31T21:21:59.000000Z
      handler_name    : ISO Media file produced by Google Inc. Created on: 10/31/2020.
      vendor_id       : [0][0][0][0]
    Stream #0:1(und): Audio: aac (LC) (mp4a / 0x6134706D), 44100 Hz, stereo, fltp, 128 kb/s (default)
    Metadata:
      creation_time   : 2020-10-31T21:21:59.000000Z
      handler_name    : ISO Media file produced by Google Inc. Created on: 10/31/2020.
      vendor_id       : [0][0][0][0]
Codec AVOption rc_eq (Set rate control equation. When computing the expression, besides the standard functions defined in the section 'Expression Evaluation', the following functions are available: bits2qp(bits), qp2bits(qp). Also the following constants are available: iTex pTex tex mv fCode iCount mcVar var isI isP isB avgQP qComp avgIITex avgPITex avgPPTex avgBPTex avgTex.) specified for output file #0 (/home/yiaapc5/public_html/f_data/data_userfiles/user_media/1134370236/v/1e79ed75ad82e0341923460cddf8424d.mob.nomob.mp4) has not been used for any stream. The most likely reason is either wrong type (e.g. a video option with no video streams) or that it is a private option of some encoder which was not actually used for any stream.
Stream mapping:
  Stream #0:0 -> #0:0 (h264 (native) -> h264 (libx264))
  Stream #0:1 -> #0:1 (aac (native) -> aac (native))
Press [q] to stop, [?] for help
[libx264 @ 0x6351880] Application has requested 32 threads. Using a thread count greater than 16 is not recommended.
[libx264 @ 0x6351880] using SAR=136/135
[libx264 @ 0x6351880] frame MB size (30x17) > level limit (396)
[libx264 @ 0x6351880] VBV bitrate (10000) > level limit (768)
[libx264 @ 0x6351880] VBV buffer (10000) > level limit (2000)
[libx264 @ 0x6351880] MB rate (15284) > level limit (11880)
[libx264 @ 0x6351880] using cpu capabilities: MMX2 SSE2Fast SSSE3 SSE4.2 AVX
[libx264 @ 0x6351880] profile Constrained Baseline, level 1.3, 4:2:0, 8-bit
[libx264 @ 0x6351880] 264 - core 161 r3040 35417dc - H.264/MPEG-4 AVC codec - Copyleft 2003-2021 - http://www.videolan.org/x264.html - options: cabac=0 ref=1 deblock=1:0:0 analyse=0x1:0 me=hex subme=1 psy=1 psy_rd=1.00:0.00 mixed_ref=0 me_range=16 chroma_me=1 trellis=0 8x8dct=0 cqm=0 deadzone=21,11 fast_pskip=1 chroma_qp_offset=0 threads=32 lookahead_threads=2 sliced_threads=0 nr=0 decimate=1 interlaced=0 bluray_compat=0 constrained_intra=0 bframes=0 weightp=0 keyint=300 keyint_min=25 scenecut=40 intra_refresh=0 rc_lookahead=30 rc=abr mbtree=1 bitrate=1000 ratetol=1.0 qcomp=0.60 qpmin=10 qpmax=51 qpstep=4 vbv_maxrate=10000 vbv_bufsize=10000 nal_hrd=none filler=0 ip_ratio=1.41 aq=1:1.00
Output #0, mp4, to '/home/yiaapc5/public_html/f_data/data_userfiles/user_media/1134370236/v/1e79ed75ad82e0341923460cddf8424d.mob.nomob.mp4':
  Metadata:
    major_brand     : mp42
    minor_version   : 0
    compatible_brands: isommp42
    encoder         : Lavf58.65.101
    Stream #0:0(und): Video: h264 (avc1 / 0x31637661), yuv420p(tv, bt709, progressive), 480x272 [SAR 136:135 DAR 16:9], q=2-31, 1000 kb/s, 29.97 fps, 30k tbn (default)
    Metadata:
      creation_time   : 2020-10-31T21:21:59.000000Z
      handler_name    : ISO Media file produced by Google Inc. Created on: 10/31/2020.
      vendor_id       : [0][0][0][0]
      encoder         : Lavc58.119.100 libx264
    Side data:
      cpb: bitrate max/min/avg: 10000000/0/1000000 buffer size: 10000000 vbv_delay: N/A
    Stream #0:1(und): Audio: aac (LC) (mp4a / 0x6134706D), 44100 Hz, stereo, fltp, 128 kb/s (default)
    Metadata:
      creation_time   : 2020-10-31T21:21:59.000000Z
      handler_name    : ISO Media file produced by Google Inc. Created on: 10/31/2020.
      vendor_id       : [0][0][0][0]
      encoder         : Lavc58.119.100 aac
frame=    1 fps=0.0 q=0.0 size=       0kB time=00:00:00.41 bitrate=   0.9kbits/s speed= 9.1x    frame=  198 fps=0.0 q=29.0 size=     512kB time=00:00:06.98 bitrate= 600.2kbits/s speed=12.8x    frame=  418 fps=399 q=27.0 size=    1536kB time=00:00:13.95 bitrate= 901.7kbits/s speed=13.3x    frame=  634 fps=409 q=26.0 size=    2304kB time=00:00:21.38 bitrate= 882.6kbits/s speed=13.8x    frame=  852 fps=416 q=26.0 size=    3328kB time=00:00:28.35 bitrate= 961.6kbits/s speed=13.8x    frame= 1057 fps=414 q=27.0 size=    4352kB time=00:00:35.31 bitrate=1009.5kbits/s speed=13.8x    frame= 1270 fps=416 q=26.0 size=    5376kB time=00:00:42.46 bitrate=1037.0kbits/s speed=13.9x    frame= 1487 fps=418 q=28.0 size=    6656kB time=00:00:49.71 bitrate=1096.8kbits/s speed=  14x    frame= 1677 fps=414 q=29.0 size=    7424kB time=00:00:56.21 bitrate=1081.9kbits/s speed=13.9x    frame= 1867 fps=410 q=29.0 size=    8448kB time=00:01:02.25 bitrate=1111.7kbits/s speed=13.7x    frame= 2076 fps=411 q=31.0 size=    9728kB time=00:01:09.65 bitrate=1144.0kbits/s speed=13.8x    frame= 2294 fps=413 q=32.0 size=   11008kB time=00:01:16.64 bitrate=1176.5kbits/s speed=13.8x    frame= 2507 fps=414 q=31.0 size=   11776kB time=00:01:23.84 bitrate=1150.5kbits/s speed=13.8x    frame= 2717 fps=414 q=30.0 size=   12544kB time=00:01:30.76 bitrate=1132.1kbits/s speed=13.8x    frame= 2935 fps=416 q=29.0 size=   13312kB time=00:01:38.01 bitrate=1112.6kbits/s speed=13.9x    frame= 3061 fps=415 q=-1.0 Lsize=   14396kB time=00:01:42.12 bitrate=1154.8kbits/s speed=13.8x    
video:12704kB audio:1606kB subtitle:0kB other streams:0kB global headers:0kB muxing overhead: 0.600800%
[libx264 @ 0x6351880] frame I:16    Avg QP:21.99  size: 22443
[libx264 @ 0x6351880] frame P:3045  Avg QP:25.14  size:  4154
[libx264 @ 0x6351880] mb I  I16..4:  8.4%  0.0% 91.6%
[libx264 @ 0x6351880] mb P  I16..4:  1.8%  0.0%  0.0%  P16..4: 77.8%  0.0%  0.0%  0.0%  0.0%    skip:20.4%
[libx264 @ 0x6351880] final ratefactor: 22.74
[libx264 @ 0x6351880] coded y,uvDC,uvAC intra: 51.2% 34.1% 11.8% inter: 38.5% 8.4% 0.1%
[libx264 @ 0x6351880] i16 v,h,dc,p: 17% 44% 23% 16%
[libx264 @ 0x6351880] i4 v,h,dc,ddl,ddr,vr,hd,vl,hu: 13% 23% 13%  8%  8%  7%  9%  7% 12%
[libx264 @ 0x6351880] i8c dc,h,v,p: 57% 24% 13%  6%
[libx264 @ 0x6351880] kb/s:1018.91
[aac @ 0x6356b80] Qavg: 214.625
